# xmcd CD database file
#
# Track frame offsets:
#	150
#	21387
#	39537
#	57912
#	75987
#	96537
#	115662
#	133962
#	149037
#	170037
#
# Disc length: 2520 seconds
#
# Revision: 2
# Processed by: cddbd v1.5.2PL0 Copyright (c) Steve Scherf et al.
# Submitted via: CDex 1.51
#
DISCID=9209d60a
DTITLE=lenny rankins - stirring up the mix
DYEAR=2004
DGENRE=Jazz
TTITLE0=juicy fruit 
TTITLE1=my head keeps spinning
TTITLE2=stirring up the mix
TTITLE3=jazz me
TTITLE4=essel
TTITLE5=i'll come running
TTITLE6=my melody
TTITLE7=it's all me
TTITLE8=up on the loop
TTITLE9=she's the one
EXTD=YEAR: 2004
EXTT0=
EXTT1=
EXTT2=
EXTT3=
EXTT4=
EXTT5=
EXTT6=
EXTT7=
EXTT8=
EXTT9=
PLAYORDER=
